<svg version="1.1" id="Layer_1" xmlns="http://www.w3.org/2000/svg" xmlns:xlink="http://www.w3.org/1999/xlink" x="0px" y="0px"
	 width="100%" viewBox="0 0 225 225" enable-background="new 0 0 225 225" xml:space="preserve">
<path fill="#161012" opacity="1.000000" stroke="none" 
	d="
M108.000000,226.000000 
	C72.000000,226.000000 36.500004,226.000000 1.000005,226.000000 
	C1.000003,151.000000 1.000003,76.000015 1.000002,1.000015 
	C75.999992,1.000010 150.999985,1.000010 225.999969,1.000005 
	C225.999985,75.999985 225.999985,150.999969 226.000000,225.999969 
	C186.833328,226.000000 147.666672,226.000000 108.000000,226.000000 
M61.189957,119.136948 
	C61.189957,119.136948 61.572056,119.359322 61.572056,119.359322 
	C61.572056,119.359322 61.974373,119.108757 62.819664,119.067886 
	C64.223053,118.992401 65.626434,118.916924 67.662720,118.941429 
	C68.427658,119.222198 69.192604,119.502960 70.622452,119.937180 
	C72.352661,118.601723 74.082863,117.266273 76.516327,115.825989 
	C76.312393,114.904648 76.320007,113.337021 75.863411,113.187569 
	C74.667862,112.796234 73.269615,113.024147 71.769981,112.269920 
	C71.822479,111.520485 71.874977,110.771049 72.408730,109.688347 
	C72.942711,109.124123 73.476692,108.559906 74.747810,108.019890 
	C76.573029,108.528969 78.398239,109.038055 80.330574,109.577019 
	C79.702347,103.773277 84.769508,98.570145 81.644890,93.071808 
	C82.778168,93.022697 83.911438,92.973587 85.667061,93.344788 
	C86.233253,97.437523 88.017166,101.858437 87.027191,105.531776 
	C86.013290,109.293846 82.282959,112.323814 79.501511,115.990776 
	C81.027817,116.248070 82.998772,116.580322 85.271873,117.562866 
	C86.839905,118.377373 88.407928,119.191879 89.992638,120.428673 
	C89.992638,120.428673 89.979103,120.851067 89.293510,121.046036 
	C87.509247,121.644478 85.724991,122.242920 83.289734,122.725983 
	C82.867775,122.847305 82.445816,122.968636 81.522644,123.024460 
	C81.359840,123.067902 81.197044,123.111336 80.102890,123.065300 
	C75.721779,123.112656 71.340668,123.160011 66.187744,123.058945 
	C63.973000,122.670074 61.758259,122.281204 59.305504,121.850540 
	C60.286304,126.530914 61.171032,130.752853 61.834209,135.643539 
	C61.551735,136.761063 61.269260,137.878601 60.497025,139.274872 
	C59.378941,142.599518 62.274895,142.892563 63.927856,142.882401 
	C69.337547,142.849091 74.744026,142.292053 80.834869,141.630478 
	C82.665565,140.048401 87.005501,142.729980 87.433693,137.635162 
	C87.620140,137.097916 87.806595,136.560654 88.797356,135.885544 
	C91.861359,135.590530 94.925362,135.295517 98.499550,135.069763 
	C99.223549,137.920715 99.947548,140.771667 100.924110,144.617157 
	C101.484123,144.667099 103.207962,144.820862 105.691658,144.966064 
	C111.848679,144.641357 118.002357,144.189148 124.163658,144.027710 
	C130.355988,143.865479 136.556580,143.936111 142.752304,144.010315 
	C148.107803,144.074448 152.943863,139.079880 158.701782,142.280365 
	C158.740723,142.302002 160.395172,140.131058 160.642349,138.857239 
	C160.875320,137.656708 160.244400,136.288528 160.685760,134.893372 
	C169.646912,130.969559 169.701157,122.900261 170.398422,114.297424 
	C173.205017,113.630508 176.011627,112.963593 178.930939,112.269897 
	C177.531281,109.647026 176.107468,106.803978 171.889374,107.306580 
	C167.703888,102.003769 167.611023,95.833931 168.589172,89.058334 
	C165.026016,89.430344 161.962494,89.750191 158.975266,90.034889 
	C158.975266,90.034889 158.944305,90.112984 158.667038,89.654617 
	C158.365326,89.473961 158.063629,89.293304 157.068268,89.038177 
	C155.374939,88.335838 153.681625,87.633507 151.856201,86.216141 
	C150.478378,83.580650 148.805161,83.233139 146.143295,85.536865 
	C145.760910,85.349030 145.378540,85.161186 144.772049,84.239990 
	C137.712646,83.340973 130.673676,82.170586 123.586769,81.636444 
	C118.698341,81.267998 113.613304,82.507851 108.861465,81.657692 
	C105.344040,81.028366 103.149559,81.619110 100.398193,83.653038 
	C97.946754,81.057442 95.642670,78.936211 93.791176,84.273026 
	C93.495438,85.125458 91.803917,85.493645 90.211296,85.960861 
	C88.801773,85.570190 87.392250,85.179527 85.463913,84.440491 
	C85.055695,84.361519 84.647476,84.282539 84.291885,84.329887 
	C84.291885,84.329887 84.162766,84.375214 83.693100,83.770523 
	C75.664124,83.560387 67.635147,83.350250 59.606171,83.140121 
	C59.692734,84.092155 59.779293,85.044189 60.104652,86.545647 
	C60.457153,87.023254 60.809658,87.500870 61.008644,88.907471 
	C60.953808,97.608307 60.898975,106.309135 60.225918,115.160492 
	C59.741764,116.107498 59.257610,117.054504 58.773460,118.001518 
	C59.574699,118.294289 60.375935,118.587059 61.092915,118.904381 
	C61.092915,118.904381 61.086472,118.816856 61.189957,119.136948 
M85.647934,100.276199 
	C85.226158,101.877419 84.804382,103.478630 84.382607,105.079849 
	C84.897697,105.132607 85.412781,105.185364 85.927872,105.238129 
	C85.927872,103.754234 85.927872,102.270348 85.647934,100.276199 
M58.491619,87.550896 
	C58.491619,87.550896 58.460251,87.486259 58.491619,87.550896 
z"/>
<path fill="#E5D9A4" opacity="1.000000" stroke="none" 
	d="
M144.996155,84.973351 
	C145.378540,85.161186 145.760910,85.349030 146.770477,85.696487 
	C148.927856,86.214462 150.458084,86.572815 151.988297,86.931168 
	C153.681625,87.633507 155.374939,88.335838 157.511719,89.336365 
	C158.284882,89.794037 158.614594,89.953506 158.944305,90.112984 
	C158.944305,90.112984 158.975266,90.034889 158.978760,90.405991 
	C160.785507,93.813850 162.588760,96.850601 164.024902,99.905853 
	C162.338333,100.640793 160.316895,101.049667 159.841080,102.135704 
	C158.747559,104.631577 158.406601,107.457161 157.438690,110.248947 
	C157.076614,110.758705 157.036057,111.168442 157.037201,111.730316 
	C157.110229,112.094551 157.093933,112.302925 156.944397,112.310638 
	C156.858765,112.113693 156.601562,111.769707 156.664520,111.535721 
	C156.505463,110.914696 156.283447,110.527649 156.178864,109.968407 
	C156.347656,109.494911 156.256241,109.246384 156.054932,108.744858 
	C155.377411,108.010536 154.667007,107.581993 153.925552,107.057091 
	C153.894516,106.960732 154.045090,106.825363 153.972366,106.515045 
	C152.607025,105.148979 151.314392,104.093231 150.395905,102.900467 
	C151.804535,102.200111 152.839050,101.636757 154.117798,100.847870 
	C155.179733,96.318222 152.126572,94.194733 149.324554,92.058784 
	C149.003769,91.814262 147.686859,92.876503 146.536026,93.252411 
	C145.857513,93.030426 145.474808,92.888885 144.901871,92.481293 
	C143.499176,91.773140 142.286713,91.331047 141.055954,90.946701 
	C141.037674,91.004448 141.112579,90.908623 140.838531,90.638069 
	C136.745621,89.625725 132.926758,88.883934 129.080887,87.816376 
	C129.351379,86.473351 129.648865,85.456108 130.389252,84.370667 
	C135.553482,84.526100 140.274811,84.749725 144.996155,84.973351 
z"/>
<path fill="#14100A" opacity="1.000000" stroke="none" 
	d="
M159.993515,134.994110 
	C160.244400,136.288528 160.875320,137.656708 160.642349,138.857239 
	C160.395172,140.131058 158.740723,142.302002 158.701782,142.280365 
	C152.943863,139.079880 148.107803,144.074448 142.752304,144.010315 
	C136.556580,143.936111 130.355988,143.865479 124.163658,144.027710 
	C118.002357,144.189148 111.848679,144.641357 105.244415,144.637161 
	C100.450546,141.197205 103.354759,137.513443 104.191696,133.881744 
	C104.659744,133.547882 104.859947,133.294403 105.260391,132.989563 
	C105.693909,132.980804 105.867294,132.976120 106.193420,133.260605 
	C107.238853,136.035736 108.131554,138.521698 109.243896,141.378815 
	C117.659096,142.025589 125.854668,142.301239 134.503067,142.622604 
	C142.152939,142.570129 148.707504,140.221069 155.315521,136.912323 
	C156.828293,136.006729 158.023773,135.136444 159.412811,134.448151 
	C159.735443,134.751450 159.864487,134.872787 159.993515,134.994110 
z"/>
<path fill="#B29F6A" opacity="1.000000" stroke="none" 
	d="
M80.151741,141.936401 
	C74.744026,142.292053 69.337547,142.849091 63.927856,142.882401 
	C62.274895,142.892563 59.378941,142.599518 61.045105,139.163712 
	C62.768898,139.591721 63.944614,140.130905 65.140060,140.679123 
	C68.920532,136.207336 68.539886,131.172577 67.023972,125.642075 
	C67.004761,124.598610 66.982162,123.902992 66.959557,123.207367 
	C71.340668,123.160011 75.721779,123.112656 80.677048,123.225189 
	C81.251198,123.385086 81.685379,123.412964 81.685379,123.412964 
	C81.685379,123.412964 82.023857,123.089958 82.023857,123.089966 
	C82.445816,122.968636 82.867775,122.847305 83.649933,123.204254 
	C84.904533,124.613312 85.798927,125.544083 86.282410,126.633492 
	C82.520035,127.084724 79.168579,127.377327 75.551239,127.575142 
	C74.916969,127.524178 74.548599,127.567993 73.805084,127.490974 
	C69.794350,130.520981 72.513084,134.444733 72.390923,137.973114 
	C72.367821,138.640213 75.144844,139.393784 76.620346,140.126572 
	C77.804924,140.714844 78.975151,141.332031 80.151741,141.936401 
z"/>
<path fill="#14100A" opacity="1.000000" stroke="none" 
	d="
M90.757675,86.085693 
	C91.803917,85.493645 93.495438,85.125458 93.791176,84.273026 
	C95.642670,78.936211 97.946754,81.057442 100.753441,84.183167 
	C103.072861,86.476242 105.037025,88.239189 106.765900,90.286880 
	C104.947685,95.447487 103.364754,100.323349 101.649628,105.606392 
	C101.235451,104.237175 100.922768,103.203491 100.851685,102.968498 
	C99.428802,103.832581 98.008728,104.694954 96.698029,105.178413 
	C98.313324,99.106094 99.069550,93.545601 93.859741,88.733643 
	C92.726013,87.662560 91.741844,86.874130 90.757675,86.085693 
M98.456726,84.492134 
	C98.456726,84.492134 98.516792,84.464180 98.456726,84.492134 
M98.543716,87.508034 
	C98.543716,87.508034 98.483376,87.536186 98.543716,87.508034 
z"/>
<path fill="#171214" opacity="1.000000" stroke="none" 
	d="
M81.008224,92.985825 
	C84.769508,98.570145 79.702347,103.773277 80.330574,109.577019 
	C78.398239,109.038055 76.573029,108.528969 74.376083,107.759018 
	C74.004356,107.498138 73.998169,107.000481 74.227524,106.881973 
	C74.296928,106.181252 74.136986,105.599037 73.721336,104.692093 
	C73.311028,99.904884 73.156425,95.442398 73.291245,90.732498 
	C76.466042,90.102333 79.753990,88.523849 81.008224,92.985825 
z"/>
<path fill="#140A06" opacity="1.000000" stroke="none" 
	d="
M107.001190,90.002136 
	C105.037025,88.239189 103.072861,86.476242 101.055115,84.364014 
	C103.149559,81.619110 105.344040,81.028366 108.861465,81.657692 
	C113.613304,82.507851 118.698341,81.267998 123.586769,81.636444 
	C130.673676,82.170586 137.712646,83.340973 144.884094,84.606674 
	C140.274811,84.749725 135.553482,84.526100 129.945312,84.255280 
	C124.793007,84.371674 120.527550,84.535248 115.811066,84.595306 
	C113.243095,84.533234 111.126152,84.574677 108.648849,84.456810 
	C106.802406,84.297508 105.316315,84.297508 103.650116,84.297508 
	C103.978622,84.917679 104.086998,85.404167 104.279663,85.440224 
	C105.525658,85.673378 106.790047,85.808289 108.070724,86.281418 
	C108.669914,86.756287 109.246796,86.925156 109.895096,87.375000 
	C110.329353,88.102783 110.692169,88.549599 111.036438,89.462578 
	C111.077927,94.933754 111.137962,99.938766 111.122925,105.378189 
	C110.896400,107.845406 110.744942,109.878227 110.424118,111.547081 
	C110.167328,107.716133 110.431435,104.193855 109.897224,100.797134 
	C109.321671,97.137505 107.998306,93.595474 107.001190,90.002136 
z"/>
<path fill="#E8C37D" opacity="1.000000" stroke="none" 
	d="
M69.957542,119.783730 
	C69.192604,119.502960 68.427658,119.222198 67.299042,118.676376 
	C66.935356,118.411316 66.854729,117.978317 66.901428,117.752655 
	C66.948135,117.527000 66.953476,117.066353 67.027115,116.744339 
	C67.706642,115.290138 68.312531,114.157936 69.107407,112.648659 
	C70.129997,106.096649 71.229774,99.903290 68.028870,93.620255 
	C67.662369,91.824753 67.299110,90.416405 67.057137,88.736526 
	C67.188911,87.353806 67.199394,86.242607 67.248428,85.026436 
	C67.286987,84.921455 67.172035,84.729584 67.548851,84.658325 
	C68.946922,84.539162 69.968178,84.491249 71.343094,84.632042 
	C74.824051,84.951050 77.951347,85.081345 81.239517,85.543602 
	C81.528191,87.075340 81.655998,88.275116 81.407303,89.326462 
	C78.972328,88.774483 76.928528,88.245483 74.851265,88.002609 
	C72.766350,87.758842 71.216812,88.350769 71.825882,91.451248 
	C71.791695,97.947693 71.859589,103.984657 71.927483,110.021614 
	C71.874977,110.771049 71.822479,111.520485 71.747787,112.859795 
	C71.725601,113.449669 71.604721,113.933830 71.410194,114.219864 
	C70.796295,116.265167 70.376923,118.024452 69.957542,119.783730 
z"/>
<path fill="#EBE0B4" opacity="1.000000" stroke="none" 
	d="
M84.969727,116.912567 
	C82.998772,116.580322 81.027817,116.248070 79.501511,115.990776 
	C82.282959,112.323814 86.013290,109.293846 87.027191,105.531776 
	C88.017166,101.858437 86.233253,97.437523 85.288429,92.861160 
	C84.604401,91.917946 84.298996,91.458351 84.372223,91.010269 
	C86.083107,92.226067 88.175812,93.213249 88.594131,94.678467 
	C89.555428,98.045494 89.701393,101.645309 90.299553,105.460327 
	C91.584961,106.838676 92.749100,107.907341 93.775681,109.312134 
	C92.076012,111.397835 90.513908,113.147408 88.559021,114.856979 
	C87.100723,115.515518 86.035225,116.214043 84.969727,116.912567 
z"/>
<path fill="#E5D9A4" opacity="1.000000" stroke="none" 
	d="
M90.178284,105.150635 
	C89.701393,101.645309 89.555428,98.045494 88.594131,94.678467 
	C88.175812,93.213249 86.083107,92.226067 84.113792,90.922775 
	C82.912430,90.374138 82.348122,89.924515 81.783813,89.474892 
	C81.655998,88.275116 81.528191,87.075340 81.318390,85.364769 
	C81.236412,84.853973 81.175674,84.468880 81.547592,84.440117 
	C82.667259,84.399307 83.415016,84.387260 84.162766,84.375214 
	C84.162766,84.375214 84.291885,84.329887 84.486893,84.515533 
	C85.115501,84.730400 85.549118,84.759628 85.982727,84.788864 
	C87.392250,85.179527 88.801773,85.570190 90.484482,86.023277 
	C91.741844,86.874130 92.726013,87.662560 93.782745,89.035583 
	C93.183594,92.085266 92.444267,94.534431 91.858482,97.019775 
	C91.223824,99.712479 90.732262,102.438911 90.178284,105.150635 
z"/>
<path fill="#1F180C" opacity="1.000000" stroke="none" 
	d="
M164.392014,99.887344 
	C162.588760,96.850601 160.785507,93.813850 158.940613,90.423569 
	C161.962494,89.750191 165.026016,89.430344 168.589172,89.058334 
	C167.611023,95.833931 167.703888,102.003769 171.586212,107.652954 
	C170.150818,107.680061 169.018585,107.360794 167.603882,106.870239 
	C166.344971,104.428413 165.368500,102.157883 164.392014,99.887344 
z"/>
<path fill="#1F1208" opacity="1.000000" stroke="none" 
	d="
M80.493301,141.783447 
	C78.975151,141.332031 77.804924,140.714844 76.620346,140.126572 
	C75.144844,139.393784 72.367821,138.640213 72.390923,137.973114 
	C72.513084,134.444733 69.794350,130.520981 73.684601,127.816605 
	C75.030128,129.146515 76.004860,130.495255 77.239319,130.803360 
	C79.050446,131.255402 81.047348,130.963120 83.136238,131.213501 
	C82.926384,132.245193 82.747765,133.328903 82.115234,133.790115 
	C81.245956,134.423935 80.032997,134.586426 78.644852,134.814789 
	C77.274773,134.979385 76.227142,135.280090 75.179504,135.580780 
	C76.026306,136.621826 76.827309,138.502075 77.728233,138.551254 
	C80.796074,138.718658 83.899147,138.240509 86.988770,138.008789 
	C87.005501,142.729980 82.665565,140.048401 80.493301,141.783447 
z"/>
<path fill="#140A06" opacity="1.000000" stroke="none" 
	d="
M78.967293,134.950867 
	C80.032997,134.586426 81.245956,134.423935 82.115234,133.790115 
	C82.747765,133.328903 82.926384,132.245193 83.566681,131.207367 
	C85.534874,130.950714 87.243767,130.925720 89.014290,131.197601 
	C90.074875,131.410019 91.073814,131.325531 92.072754,131.241058 
	C93.905510,131.887772 95.985374,132.609879 97.568596,132.013504 
	C98.722397,131.578903 99.221169,129.405289 100.132683,127.792259 
	C100.464706,127.314606 100.727531,127.121887 101.025520,127.290192 
	C102.000305,128.740875 102.991455,129.900772 104.026665,131.341614 
	C104.380569,132.079575 104.690414,132.536606 105.000259,132.993622 
	C104.859947,133.294403 104.659744,133.547882 103.792336,133.876831 
	C101.453133,134.333206 99.721245,134.666855 97.989365,135.000488 
	C94.925362,135.295517 91.861359,135.590530 88.028336,135.786514 
	C84.495300,135.441956 81.731300,135.196411 78.967293,134.950867 
z"/>
<path fill="#B29F6A" opacity="1.000000" stroke="none" 
	d="
M66.854729,117.978317 
	C66.854729,117.978317 66.935356,118.411316 66.982590,118.626373 
	C65.626434,118.916924 64.223053,118.992401 62.182365,118.993172 
	C61.545067,118.918457 61.086472,118.816856 61.086472,118.816856 
	C61.086472,118.816856 61.092915,118.904381 61.070442,118.509079 
	C60.980022,117.079170 60.912083,116.044571 60.844139,115.009972 
	C60.898975,106.309135 60.953808,97.608307 61.289139,88.205864 
	C61.718750,86.691628 61.867867,85.878998 62.253990,84.857353 
	C63.318882,84.648094 64.146767,84.647850 64.994141,84.771149 
	C65.013634,84.894684 65.091454,85.132698 64.962540,85.488960 
	C61.345936,95.140251 62.841881,104.585869 63.981598,114.391022 
	C63.993359,115.501747 64.005836,116.242203 63.948601,117.211006 
	C64.870834,117.619011 65.862785,117.798660 66.854729,117.978317 
z"/>
<path fill="#D1BB78" opacity="1.000000" stroke="none" 
	d="
M67.020569,125.989914 
	C68.539886,131.172577 68.920532,136.207336 65.140060,140.679123 
	C63.944614,140.130905 62.768898,139.591721 61.289986,139.024338 
	C61.269260,137.878601 61.551735,136.761063 62.192879,135.010834 
	C63.828812,131.468872 61.243912,126.501984 67.020569,125.989914 
z"/>
<path fill="#2C2316" opacity="1.000000" stroke="none" 
	d="
M167.886337,107.041527 
	C169.018585,107.360794 170.150818,107.680061 171.638489,108.007874 
	C176.107468,106.803978 177.531281,109.647026 178.930939,112.269897 
	C176.011627,112.963593 173.205017,113.630508 169.883255,114.630722 
	C168.962509,114.983521 168.556915,115.003021 168.088409,114.667107 
	C167.373962,113.167847 166.722427,112.024002 166.043915,110.558640 
	C166.640060,109.171921 167.263199,108.106720 167.886337,107.041527 
z"/>
<path fill="#14100A" opacity="1.000000" stroke="none" 
	d="
M168.151337,115.022522 
	C168.556915,115.003021 168.962509,114.983521 169.671829,114.948730 
	C169.701157,122.900261 169.646912,130.969559 160.339630,134.943741 
	C159.864487,134.872787 159.735443,134.751450 159.593338,134.214828 
	C160.025452,133.175842 160.470612,132.552155 161.186066,131.753632 
	C162.368469,130.384567 163.280579,129.190323 164.414429,127.808289 
	C164.796448,126.872688 164.956741,126.124893 165.131424,125.026917 
	C165.092026,124.449364 165.038223,124.221992 165.071014,124.104126 
	C165.157578,124.213631 165.418457,124.114189 165.672165,124.037674 
	C165.932785,123.302567 165.939682,122.643982 165.973572,121.736488 
	C166.066727,121.334343 166.132889,121.181107 166.512589,120.950630 
	C167.181976,120.176392 167.537827,119.479393 167.887634,118.404877 
	C167.971497,117.025749 168.061417,116.024132 168.151337,115.022522 
z"/>
<path fill="#D0BD86" opacity="1.000000" stroke="none" 
	d="
M67.023972,125.642075 
	C61.243912,126.501984 63.828812,131.468872 62.303658,134.676453 
	C61.171032,130.752853 60.286304,126.530914 59.305504,121.850540 
	C61.758259,122.281204 63.973000,122.670074 66.573654,123.133156 
	C66.982162,123.902992 67.004761,124.598610 67.023972,125.642075 
z"/>
<path fill="#171214" opacity="1.000000" stroke="none" 
	d="
M78.644852,134.814789 
	C81.731300,135.196411 84.495300,135.441956 87.626175,135.855438 
	C87.806595,136.560654 87.620140,137.097916 87.211227,137.821976 
	C83.899147,138.240509 80.796074,138.718658 77.728233,138.551254 
	C76.827309,138.502075 76.026306,136.621826 75.179504,135.580780 
	C76.227142,135.280090 77.274773,134.979385 78.644852,134.814789 
z"/>
<path fill="#221F20" opacity="1.000000" stroke="none" 
	d="
M98.244461,135.035126 
	C99.721245,134.666855 101.453133,134.333206 103.584381,134.004486 
	C103.354759,137.513443 100.450546,141.197205 104.864494,144.641449 
	C103.207962,144.820862 101.484123,144.667099 100.924110,144.617157 
	C99.947548,140.771667 99.223549,137.920715 98.244461,135.035126 
z"/>
<path fill="#140A06" opacity="1.000000" stroke="none" 
	d="
M64.974648,84.647606 
	C64.146767,84.647850 63.318882,84.648094 61.934410,84.855743 
	C60.873837,85.374176 60.369843,85.685196 59.865852,85.996223 
	C59.779293,85.044189 59.692734,84.092155 59.606171,83.140121 
	C67.635147,83.350250 75.664124,83.560387 83.927933,84.072868 
	C83.415016,84.387260 82.667259,84.399307 81.104240,84.277145 
	C77.189125,84.243073 74.089279,84.343201 70.989433,84.443329 
	C69.968178,84.491249 68.946922,84.539162 67.199791,84.496872 
	C65.974159,84.486977 65.474403,84.567291 64.974648,84.647606 
z"/>
<path fill="#CEA95F" opacity="1.000000" stroke="none" 
	d="
M86.693329,126.474869 
	C85.798927,125.544083 84.904533,124.613312 83.975433,123.261948 
	C85.724991,122.242920 87.509247,121.644478 89.868210,121.011398 
	C90.442917,120.976768 90.922409,120.956566 91.201706,120.984795 
	C91.667328,121.031067 91.853668,121.049103 92.019119,121.398727 
	C92.004044,122.173134 92.009850,122.615974 91.927315,123.403961 
	C91.753143,124.454933 91.667320,125.160736 91.421463,125.834564 
	C91.261436,125.802582 90.997032,125.993958 90.632324,125.962830 
	C89.076187,126.112755 87.884758,126.293808 86.693329,126.474869 
z"/>
<path fill="#1F1208" opacity="1.000000" stroke="none" 
	d="
M81.407303,89.326462 
	C82.348122,89.924515 82.912430,90.374138 83.735161,90.911270 
	C84.298996,91.458351 84.604401,91.917946 84.977257,92.651009 
	C83.911438,92.973587 82.778168,93.022697 81.326553,93.028816 
	C79.753990,88.523849 76.466042,90.102333 73.022781,90.736374 
	C72.285912,90.989021 72.106941,90.990395 71.927971,90.991768 
	C71.216812,88.350769 72.766350,87.758842 74.851265,88.002609 
	C76.928528,88.245483 78.972328,88.774483 81.407303,89.326462 
z"/>
<path fill="#221F20" opacity="1.000000" stroke="none" 
	d="
M85.120804,117.237717 
	C86.035225,116.214043 87.100723,115.515518 88.725136,115.143936 
	C89.689583,117.240181 94.284943,116.423424 91.814117,119.954788 
	C91.636177,120.051300 91.232193,120.085457 90.918915,120.053322 
	C90.395737,120.016243 90.185844,120.011307 89.975960,120.006378 
	C88.407928,119.191879 86.839905,118.377373 85.120804,117.237717 
z"/>
<path fill="#140A06" opacity="1.000000" stroke="none" 
	d="
M71.825882,91.451248 
	C72.106941,90.990395 72.285912,90.989021 72.733353,90.983780 
	C73.156425,95.442398 73.311028,99.904884 73.725128,105.022484 
	C73.989143,106.118553 73.993660,106.559517 73.998169,107.000481 
	C73.998169,107.000481 74.004356,107.498138 74.007523,107.746918 
	C73.476692,108.559906 72.942711,109.124123 72.168106,109.854980 
	C71.859589,103.984657 71.791695,97.947693 71.825882,91.451248 
z"/>
<path fill="#B09362" opacity="1.000000" stroke="none" 
	d="
M70.289993,119.860458 
	C70.376923,118.024452 70.796295,116.265167 71.620186,114.521057 
	C73.287491,115.001091 74.550285,115.465950 75.813072,115.930817 
	C74.082863,117.266273 72.352661,118.601723 70.289993,119.860458 
z"/>
<path fill="#140A06" opacity="1.000000" stroke="none" 
	d="
M76.164703,115.878403 
	C74.550285,115.465950 73.287491,115.001091 71.814713,114.235031 
	C71.604721,113.933830 71.725601,113.449669 71.838882,113.227455 
	C73.269615,113.024147 74.667862,112.796234 75.863411,113.187569 
	C76.320007,113.337021 76.312393,114.904648 76.164703,115.878403 
z"/>
<path fill="#140A06" opacity="1.000000" stroke="none" 
	d="
M151.922241,86.573654 
	C150.458084,86.572815 148.927856,86.214462 147.092041,85.708832 
	C148.805161,83.233139 150.478378,83.580650 151.922241,86.573654 
z"/>
<path fill="#140A06" opacity="1.000000" stroke="none" 
	d="
M60.535030,115.085236 
	C60.912083,116.044571 60.980022,117.079170 61.112572,118.496796 
	C60.375935,118.587059 59.574699,118.294289 58.773460,118.001518 
	C59.257610,117.054504 59.741764,116.107498 60.535030,115.085236 
z"/>
<path fill="#171214" opacity="1.000000" stroke="none" 
	d="
M85.787903,100.531326 
	C85.927872,102.270348 85.927872,103.754234 85.927872,105.238129 
	C85.412781,105.185364 84.897697,105.132607 84.382607,105.079849 
	C84.804382,103.478630 85.226158,101.877419 85.787903,100.531326 
z"/>
<path fill="#B09362" opacity="1.000000" stroke="none" 
	d="
M59.985252,86.270935 
	C60.369843,85.685196 60.873837,85.374176 61.697403,85.064758 
	C61.867867,85.878998 61.718750,86.691628 61.365898,87.741364 
	C60.809658,87.500870 60.457153,87.023254 59.985252,86.270935 
z"/>
<path fill="#140A06" opacity="1.000000" stroke="none" 
	d="
M85.723320,84.614677 
	C85.549118,84.759628 85.115501,84.730400 84.460571,84.452370 
	C84.647476,84.282539 85.055695,84.361519 85.723320,84.614677 
z"/>
<path fill="#140A06" opacity="1.000000" stroke="none" 
	d="
M58.475937,87.518578 
	C58.460251,87.486259 58.491619,87.550896 58.475937,87.518578 
z"/>
<path fill="#1F180C" opacity="1.000000" stroke="none" 
	d="
M158.805664,89.883804 
	C158.614594,89.953506 158.284882,89.794037 157.858551,89.373604 
	C158.063629,89.293304 158.365326,89.473961 158.805664,89.883804 
z"/>
<path fill="#CEA95F" opacity="1.000000" stroke="none" 
	d="
M81.773254,123.057205 
	C82.023857,123.089958 81.685379,123.412964 81.685379,123.412964 
	C81.685379,123.412964 81.251198,123.385086 81.142723,123.269928 
	C81.197044,123.111336 81.359840,123.067902 81.773254,123.057205 
z"/>
<path fill="#140A06" opacity="1.000000" stroke="none" 
	d="
M61.138214,118.976898 
	C61.086472,118.816856 61.545067,118.918457 61.759720,119.013611 
	C61.974373,119.108757 61.572056,119.359322 61.572056,119.359322 
	C61.572056,119.359322 61.189957,119.136948 61.138214,118.976898 
z"/>
<path fill="#2C2316" opacity="1.000000" stroke="none" 
	d="
M89.984299,120.217529 
	C90.185844,120.011307 90.395737,120.016243 90.862808,120.278763 
	C91.119980,120.536331 90.922409,120.956566 90.922409,120.956566 
	C90.922409,120.956566 90.442917,120.976768 90.211014,120.913918 
	C89.979103,120.851067 89.992638,120.428673 89.984299,120.217529 
z"/>
<path fill="#171214" opacity="1.000000" stroke="none" 
	d="
M156.022049,109.050629 
	C156.256241,109.246384 156.347656,109.494911 155.853683,110.295380 
	C154.968048,111.535919 154.525040,112.277298 153.795319,112.798355 
	C151.894150,112.172920 150.102951,111.174644 148.730972,111.583405 
	C147.897690,111.831673 147.490829,114.222015 147.277115,115.705498 
	C146.639496,120.131279 150.555756,119.778984 153.167297,121.292725 
	C153.356461,124.197090 153.388718,126.752556 153.403030,129.328644 
	C153.385086,129.349243 153.344727,129.386078 153.004807,129.353607 
	C152.131760,129.923096 151.598618,130.525055 150.925537,131.451065 
	C146.604782,137.544952 140.455994,138.585571 133.548279,138.635071 
	C131.433273,138.275803 129.724625,138.060532 127.933044,137.531723 
	C123.444099,133.358139 122.611542,125.522896 126.263741,120.003105 
	C126.506660,120.003403 126.992455,119.997070 127.393021,119.997864 
	C128.861053,119.996056 129.928497,119.993454 131.198212,120.199318 
	C132.599075,119.945732 133.797714,119.483673 135.335327,118.952690 
	C137.993027,117.433441 140.311737,115.983109 142.630447,114.532784 
	C142.466736,114.277496 142.303024,114.022209 142.139313,113.766922 
	C140.737198,113.766922 139.335098,113.766922 137.951263,113.386711 
	C139.062439,111.679871 140.012115,110.187675 141.293579,109.078972 
	C142.319687,108.191200 143.748856,107.769295 145.445999,107.069107 
	C148.610260,106.940170 151.327667,106.882767 154.045090,106.825363 
	C154.045090,106.825363 153.894516,106.960732 154.051392,107.414391 
	C154.812851,108.262245 155.417450,108.656433 156.022049,109.050629 
z"/>
<path fill="#D9B069" opacity="1.000000" stroke="none" 
	d="
M111.054985,88.996414 
	C110.692169,88.549599 110.329353,88.102783 110.308464,87.311234 
	C113.642998,86.505516 116.635605,86.044540 120.346169,85.472977 
	C118.468147,85.116989 117.365120,84.907898 116.262085,84.698822 
	C120.527550,84.535248 124.793007,84.371674 129.502411,84.323479 
	C129.648865,85.456108 129.351379,86.473351 128.682693,87.955879 
	C126.251259,88.666901 124.191025,88.912643 122.047348,89.168343 
	C122.047348,93.424545 122.047348,97.210403 121.980682,101.329453 
	C121.961258,102.111008 122.008499,102.559372 121.978073,103.400284 
	C121.993225,104.833870 122.086037,105.874916 122.197685,107.127335 
	C123.655403,106.790268 124.838188,106.516769 126.180588,106.526260 
	C126.178986,108.317787 126.017769,109.826324 125.635536,111.553909 
	C124.594223,112.815491 123.773933,113.858025 122.623047,114.921219 
	C120.864983,114.877708 119.437515,114.813538 117.926170,114.467438 
	C116.633041,114.402374 115.357948,114.445023 114.228134,114.872055 
	C111.802116,115.789024 110.318306,115.664207 110.796402,112.355560 
	C110.719383,112.211853 110.593491,111.911041 110.593491,111.911041 
	C110.744942,109.878227 110.896400,107.845406 111.312042,105.180672 
	C111.727791,104.030289 111.879356,103.511826 112.391869,103.059227 
	C114.531967,102.851852 117.687866,102.919914 117.854698,102.246971 
	C118.624634,99.141273 118.939835,95.780014 118.528275,92.626472 
	C118.427650,91.855431 114.969398,91.522575 112.989609,90.681976 
	C112.301216,89.915939 111.678101,89.456177 111.054985,88.996414 
z"/>
<path fill="#EBE0B4" opacity="1.000000" stroke="none" 
	d="
M133.954666,138.779053 
	C140.455994,138.585571 146.604782,137.544952 151.242096,131.393341 
	C152.247314,130.469727 152.796021,129.927902 153.344727,129.386078 
	C153.344727,129.386078 153.385086,129.349243 153.663086,129.081390 
	C154.970734,123.378212 156.000381,117.942894 157.030029,112.507576 
	C157.093933,112.302925 157.110229,112.094551 157.189331,111.440506 
	C157.496948,110.905090 157.694153,110.811615 157.943207,111.068359 
	C158.646149,113.604439 159.297241,115.790298 159.588379,118.097488 
	C159.123474,121.147682 159.018509,124.076561 158.895691,127.294006 
	C158.578934,128.054550 158.280029,128.526535 157.647308,129.071747 
	C154.222443,131.057663 153.711792,133.736023 154.998215,136.947617 
	C148.707504,140.221069 142.152939,142.570129 134.481323,142.304443 
	C133.379562,141.111664 132.752396,140.282745 132.125641,139.454117 
	C132.735596,139.229279 133.345139,139.004166 133.954666,138.779053 
z"/>
<path fill="#E2D091" opacity="1.000000" stroke="none" 
	d="
M159.948349,117.976158 
	C159.297241,115.790298 158.646149,113.604439 157.872757,110.934761 
	C157.750458,110.450943 157.760208,110.148926 157.760208,110.148926 
	C158.406601,107.457161 158.747559,104.631577 159.841080,102.135704 
	C160.316895,101.049667 162.338333,100.640793 164.024902,99.905853 
	C165.368500,102.157883 166.344971,104.428413 167.603882,106.870239 
	C167.263199,108.106720 166.640060,109.171921 165.890503,110.913254 
	C165.137512,114.276756 164.289764,116.938683 163.976456,119.662094 
	C163.816879,121.049263 164.617737,122.546913 164.984436,123.994621 
	C165.038223,124.221992 165.092026,124.449364 164.925446,124.915070 
	C164.705063,125.153412 164.240799,125.088676 163.967758,125.268738 
	C162.798050,126.297501 161.901382,127.146194 160.955597,127.660461 
	C160.587097,124.209404 160.267731,121.092781 159.948349,117.976158 
z"/>
<path fill="#14100A" opacity="1.000000" stroke="none" 
	d="
M122.055740,103.007744 
	C122.008499,102.559372 121.961258,102.111008 122.303772,101.256012 
	C123.128532,98.904800 123.563545,96.960220 124.393318,94.948547 
	C128.864380,93.919609 132.940689,92.957779 137.340881,91.847137 
	C138.814026,91.435097 139.963303,91.171860 141.112579,90.908623 
	C141.112579,90.908623 141.037674,91.004448 141.101532,91.276642 
	C142.474289,91.948341 143.783188,92.347847 145.092087,92.747353 
	C145.474808,92.888885 145.857513,93.030426 146.692596,93.483635 
	C147.811432,94.416801 148.477921,95.038300 149.093475,95.992172 
	C149.029877,96.548347 149.017212,96.772163 148.687317,97.140045 
	C147.248749,97.523354 146.127396,97.762589 144.936478,97.627800 
	C143.117996,93.774117 140.166733,94.904518 137.539078,95.587944 
	C137.108032,95.700050 137.161392,97.674599 136.956039,99.015953 
	C134.841309,100.467880 130.021881,96.142311 128.831802,102.323402 
	C126.448402,102.750328 124.252068,102.879036 122.055740,103.007744 
z"/>
<path fill="#140A06" opacity="1.000000" stroke="none" 
	d="
M145.006042,98.001831 
	C146.127396,97.762589 147.248749,97.523354 148.893051,97.141884 
	C149.416000,96.999657 149.827789,97.004768 149.946747,97.308350 
	C151.334991,98.765755 152.604263,99.919579 153.873550,101.073410 
	C152.839050,101.636757 151.804535,102.200111 149.936371,102.877243 
	C147.801956,102.996826 146.453857,102.785263 145.210846,103.056061 
	C142.982117,103.541595 140.816589,104.317207 138.624649,104.971588 
	C140.749481,105.694603 142.874329,106.417625 144.999161,107.140640 
	C143.748856,107.769295 142.319687,108.191200 141.293579,109.078972 
	C140.012115,110.187675 139.062439,111.679871 137.735397,113.445236 
	C137.501266,113.883980 137.054626,113.902847 136.840393,113.706589 
	C132.944656,112.873695 136.057373,110.048203 135.214722,108.225464 
	C135.264343,106.584839 135.129440,105.275192 134.812805,103.738853 
	C134.086609,103.338593 133.542160,103.165024 132.999710,102.748024 
	C133.001709,102.504593 133.006424,102.017525 133.408569,101.996742 
	C137.542496,100.651253 141.274277,99.326538 145.006042,98.001831 
z"/>
<path fill="#F6F3BD" opacity="1.000000" stroke="none" 
	d="
M145.445999,107.069107 
	C142.874329,106.417625 140.749481,105.694603 138.624649,104.971588 
	C140.816589,104.317207 142.982117,103.541595 145.210846,103.056061 
	C146.453857,102.785263 147.801956,102.996826 149.562225,103.014244 
	C151.314392,104.093231 152.607025,105.148979 153.972366,106.515045 
	C151.327667,106.882767 148.610260,106.940170 145.445999,107.069107 
z"/>
<path fill="#1F1208" opacity="1.000000" stroke="none" 
	d="
M140.838531,90.638069 
	C139.963303,91.171860 138.814026,91.435097 137.055206,91.592697 
	C133.436905,90.994652 130.443878,90.285812 127.415344,90.065872 
	C123.816795,89.804535 122.979523,91.871407 123.998550,95.015640 
	C123.563545,96.960220 123.128532,98.904800 122.370438,100.922821 
	C122.047348,97.210403 122.047348,93.424545 122.047348,89.168343 
	C124.191025,88.912643 126.251259,88.666901 128.709686,88.281654 
	C132.926758,88.883934 136.745621,89.625725 140.838531,90.638069 
z"/>
<path fill="#2C2316" opacity="1.000000" stroke="none" 
	d="
M156.944397,112.310638 
	C156.000381,117.942894 154.970734,123.378212 153.681030,129.060776 
	C153.388718,126.752556 153.356461,124.197090 153.166473,120.886047 
	C153.005035,118.771385 153.001343,117.412285 153.433563,116.015045 
	C154.780197,114.574501 155.690872,113.172104 156.601562,111.769707 
	C156.601562,111.769707 156.858765,112.113693 156.944397,112.310638 
z"/>
<path fill="#F6F3BD" opacity="1.000000" stroke="none" 
	d="
M154.117798,100.847878 
	C152.604263,99.919579 151.334991,98.765755 150.000977,97.025757 
	C149.672302,96.179649 149.408356,95.919724 149.144409,95.659805 
	C148.477921,95.038300 147.811432,94.416801 146.988373,93.564079 
	C147.686859,92.876503 149.003769,91.814262 149.324554,92.058784 
	C152.126572,94.194733 155.179733,96.318222 154.117798,100.847878 
z"/>
<path fill="#140A06" opacity="1.000000" stroke="none" 
	d="
M156.664520,111.535721 
	C155.690872,113.172104 154.780197,114.574501 153.566711,115.717422 
	C153.536606,114.644852 153.809311,113.831757 154.082001,113.018669 
	C154.525040,112.277298 154.968048,111.535919 155.736252,110.467575 
	C156.283447,110.527649 156.505463,110.914696 156.664520,111.535721 
z"/>
<path fill="#1F1208" opacity="1.000000" stroke="none" 
	d="
M144.901871,92.481293 
	C143.783188,92.347847 142.474289,91.948341 141.119812,91.218903 
	C142.286713,91.331047 143.499176,91.773140 144.901871,92.481293 
z"/>
<path fill="#140A06" opacity="1.000000" stroke="none" 
	d="
M156.054932,108.744858 
	C155.417450,108.656433 154.812851,108.262245 154.082428,107.510750 
	C154.667007,107.581993 155.377411,108.010536 156.054932,108.744858 
z"/>
<path fill="#2C2316" opacity="1.000000" stroke="none" 
	d="
M157.438690,110.248947 
	C157.760208,110.148926 157.750458,110.450943 157.820908,110.584549 
	C157.694153,110.811615 157.496948,110.905090 157.147629,111.288361 
	C157.036057,111.168442 157.076614,110.758705 157.438690,110.248947 
z"/>
<path fill="#CEAE77" opacity="1.000000" stroke="none" 
	d="
M133.548279,138.635071 
	C133.345139,139.004166 132.735596,139.229279 132.125641,139.454117 
	C132.752396,140.282745 133.379562,141.111664 134.028473,142.258728 
	C125.854668,142.301239 117.659096,142.025589 109.431831,141.204773 
	C109.809242,140.392990 110.218353,140.126373 111.029640,140.030212 
	C114.960236,140.462372 118.488647,140.724060 122.368896,140.985519 
	C123.641472,140.715118 124.562202,140.444946 126.397171,139.906540 
	C116.996117,135.700027 121.524612,127.201241 118.806061,120.744781 
	C116.715454,121.891785 114.895218,122.890457 112.952515,123.665756 
	C112.544952,123.017914 112.259857,122.593445 112.277069,122.050316 
	C113.402725,121.319328 114.226082,120.707008 115.410934,120.034424 
	C118.186165,118.655731 120.599899,117.337311 123.342880,116.078796 
	C123.848412,116.769783 124.024696,117.400871 124.035004,118.391090 
	C123.243950,122.854866 122.427086,126.941879 122.047646,131.069092 
	C121.666931,135.210205 123.666718,137.664658 128.015991,137.845245 
	C129.724625,138.060532 131.433273,138.275803 133.548279,138.635071 
z"/>
<path fill="#2C2316" opacity="1.000000" stroke="none" 
	d="
M110.627457,139.859756 
	C110.218353,140.126373 109.809242,140.392990 109.212189,140.833649 
	C108.131554,138.521698 107.238853,136.035736 106.311661,132.982254 
	C106.202042,131.714172 106.126923,131.013596 106.051796,130.313019 
	C105.362061,130.562225 104.672333,130.811447 103.982605,131.060669 
	C102.991455,129.900772 102.000305,128.740875 101.304260,127.263893 
	C104.137871,125.667854 106.676392,124.388893 109.122444,123.485794 
	C109.252686,124.970360 109.308807,126.149071 109.738274,127.170868 
	C110.338684,128.599411 111.853546,129.914658 111.845528,131.271698 
	C111.828606,134.136688 111.077415,136.997330 110.627457,139.859756 
z"/>
<path fill="#E5D9A4" opacity="1.000000" stroke="none" 
	d="
M155.315521,136.912323 
	C153.711792,133.736023 154.222443,131.057663 157.667496,129.430252 
	C158.989136,130.450455 159.956741,131.185364 160.935150,131.929199 
	C160.945953,131.938126 160.915771,131.928452 160.915771,131.928452 
	C160.470612,132.552155 160.025452,133.175842 159.399780,134.032837 
	C158.023773,135.136444 156.828293,136.006729 155.315521,136.912323 
z"/>
<path fill="#1F180C" opacity="1.000000" stroke="none" 
	d="
M104.026665,131.341614 
	C104.672333,130.811447 105.362061,130.562225 106.051796,130.313019 
	C106.126923,131.013596 106.202042,131.714172 106.158920,132.693100 
	C105.867294,132.976120 105.693909,132.980804 105.260391,132.989563 
	C104.690414,132.536606 104.380569,132.079575 104.026665,131.341614 
z"/>
<path fill="#1F1208" opacity="1.000000" stroke="none" 
	d="
M86.282410,126.633499 
	C87.884758,126.293808 89.076187,126.112755 90.659363,126.351166 
	C93.028641,127.510727 95.006180,128.250824 97.026764,129.222809 
	C97.389313,128.970306 97.708794,128.485916 98.358810,128.001953 
	C99.130211,128.003906 99.571083,128.005417 100.011963,128.006943 
	C99.221169,129.405289 98.722397,131.578903 97.568596,132.013504 
	C95.985374,132.609879 93.905510,131.887772 92.072754,131.241058 
	C91.073814,131.325531 90.074875,131.410019 88.990440,130.813782 
	C87.281013,126.461685 84.225761,128.461685 81.701889,128.288467 
	C79.735413,128.153503 77.778366,127.881203 75.817123,127.669930 
	C79.168579,127.377327 82.520035,127.084724 86.282410,126.633499 
z"/>
<path fill="#221F20" opacity="1.000000" stroke="none" 
	d="
M75.551239,127.575142 
	C77.778366,127.881203 79.735413,128.153503 81.701889,128.288467 
	C84.225761,128.461685 87.281013,126.461685 88.928802,130.516891 
	C87.243767,130.925720 85.534874,130.950714 83.395538,130.981842 
	C81.047348,130.963120 79.050446,131.255402 77.239319,130.803360 
	C76.004860,130.495255 75.030128,129.146515 74.059746,127.937447 
	C74.548599,127.567993 74.916969,127.524178 75.551239,127.575142 
z"/>
<path fill="#171214" opacity="1.000000" stroke="none" 
	d="
M110.424118,111.547081 
	C110.593491,111.911041 110.719383,112.211853 110.431450,112.484795 
	C108.379311,113.517113 106.668327,114.708153 104.838318,114.933769 
	C102.153854,115.264755 100.771332,116.317764 100.626732,119.009514 
	C100.479370,118.980125 100.189354,118.901016 100.154160,118.507431 
	C99.606613,115.256004 102.854668,110.222893 96.071136,110.638535 
	C96.286308,108.718048 96.447899,107.182739 96.595131,105.627029 
	C96.580765,105.606636 96.588654,105.557343 96.588654,105.557343 
	C98.008728,104.694954 99.428802,103.832581 100.851685,102.968498 
	C100.922768,103.203491 101.235451,104.237175 101.649628,105.606392 
	C103.364754,100.323349 104.947685,95.447487 106.765907,90.286880 
	C107.998306,93.595474 109.321671,97.137505 109.897224,100.797134 
	C110.431435,104.193855 110.167328,107.716133 110.424118,111.547081 
z"/>
<path fill="#D0BD86" opacity="1.000000" stroke="none" 
	d="
M90.299561,105.460327 
	C90.732262,102.438911 91.223824,99.712479 91.858482,97.019775 
	C92.444267,94.534431 93.183594,92.085266 93.932289,89.318230 
	C99.069550,93.545601 98.313324,99.106094 96.698036,105.178421 
	C96.588654,105.557343 96.580765,105.606636 96.378586,105.776718 
	C95.823769,106.307732 95.471123,106.668655 94.920654,107.223358 
	C94.469147,107.907600 94.215446,108.398064 93.972984,108.923355 
	C93.984222,108.958176 93.913239,108.976006 93.913239,108.976006 
	C92.749100,107.907341 91.584961,106.838676 90.299561,105.460327 
z"/>
<path fill="#161012" opacity="1.000000" stroke="none" 
	d="
M98.486755,84.478157 
	C98.516792,84.464180 98.456726,84.492134 98.486755,84.478157 
z"/>
<path fill="#161012" opacity="1.000000" stroke="none" 
	d="
M98.513550,87.522110 
	C98.483376,87.536186 98.543716,87.508034 98.513550,87.522110 
z"/>
<path fill="#161012" opacity="1.000000" stroke="none" 
	d="
M74.227524,106.881973 
	C73.993660,106.559517 73.989143,106.118553 73.980835,105.347198 
	C74.136986,105.599037 74.296928,106.181252 74.227524,106.881973 
z"/>
<path fill="#E8C37D" opacity="1.000000" stroke="none" 
	d="
M112.030907,102.993355 
	C111.879356,103.511826 111.727791,104.030289 111.387115,104.746262 
	C111.137962,99.938766 111.077927,94.933754 111.036438,89.462578 
	C111.678101,89.456177 112.301216,89.915939 113.051285,91.025040 
	C113.950928,94.078575 118.670876,96.059441 113.665916,99.102234 
	C112.920578,99.772614 112.478683,100.391518 112.032806,101.340927 
	C112.029526,102.112061 112.030212,102.552711 112.030907,102.993355 
z"/>
<path fill="#E8C37D" opacity="1.000000" stroke="none" 
	d="
M115.811066,84.595306 
	C117.365120,84.907898 118.468147,85.116989 120.346169,85.472977 
	C116.635605,86.044540 113.642998,86.505516 110.237030,87.030258 
	C109.246796,86.925156 108.669914,86.756287 108.283203,86.196426 
	C108.651978,85.408989 108.830589,85.012550 109.009201,84.616112 
	C111.126152,84.574677 113.243095,84.533234 115.811066,84.595306 
z"/>
<path fill="#D9B069" opacity="1.000000" stroke="none" 
	d="
M108.648849,84.456810 
	C108.830589,85.012550 108.651978,85.408989 108.260887,85.890427 
	C106.790047,85.808289 105.525658,85.673378 104.279663,85.440224 
	C104.086998,85.404167 103.978622,84.917679 103.650116,84.297508 
	C105.316315,84.297508 106.802406,84.297508 108.648849,84.456810 
z"/>
<path fill="#CEA95F" opacity="1.000000" stroke="none" 
	d="
M64.018318,116.982651 
	C64.005836,116.242203 63.993359,115.501747 64.249855,114.069893 
	C64.680870,106.759979 64.731857,100.135483 65.087814,93.527420 
	C65.170509,91.992241 66.292213,90.513023 66.935844,89.008057 
	C67.299110,90.416405 67.662369,91.824753 67.757202,93.934875 
	C67.342407,99.913612 67.109779,105.191002 67.136543,110.467087 
	C67.140884,111.322960 68.295486,112.172997 68.918411,113.025734 
	C68.312531,114.157936 67.706642,115.290138 66.661133,116.722717 
	C65.487106,117.009621 64.752716,116.996132 64.018318,116.982651 
z"/>
<path fill="#C19F58" opacity="1.000000" stroke="none" 
	d="
M67.057137,88.736526 
	C66.292213,90.513023 65.170509,91.992241 65.087814,93.527420 
	C64.731857,100.135483 64.680870,106.759979 64.250572,113.699615 
	C62.841881,104.585869 61.345936,95.140251 65.313904,85.464676 
	C66.266075,85.099892 66.737968,85.115654 67.209869,85.131416 
	C67.199394,86.242607 67.188911,87.353806 67.057137,88.736526 
z"/>
<path fill="#EEBB5C" opacity="1.000000" stroke="none" 
	d="
M69.107407,112.648659 
	C68.295486,112.172997 67.140884,111.322960 67.136543,110.467087 
	C67.109779,105.191002 67.342407,99.913612 67.760445,94.322029 
	C71.229774,99.903290 70.129997,106.096649 69.107407,112.648659 
z"/>
<path fill="#B09362" opacity="1.000000" stroke="none" 
	d="
M71.343094,84.632050 
	C74.089279,84.343201 77.189125,84.243073 80.732323,84.305908 
	C81.175674,84.468880 81.236412,84.853973 81.157532,85.032806 
	C77.951347,85.081345 74.824051,84.951050 71.343094,84.632050 
z"/>
<path fill="#B09362" opacity="1.000000" stroke="none" 
	d="
M63.948601,117.211006 
	C64.752716,116.996132 65.487106,117.009621 66.587494,117.044731 
	C66.953476,117.066353 66.948135,117.527000 66.901428,117.752655 
	C65.862785,117.798660 64.870834,117.619011 63.948601,117.211006 
z"/>
<path fill="#B09362" opacity="1.000000" stroke="none" 
	d="
M67.248428,85.026436 
	C66.737968,85.115654 66.266075,85.099892 65.442810,85.108414 
	C65.091454,85.132698 65.013634,84.894684 64.994141,84.771149 
	C65.474403,84.567291 65.974159,84.486977 66.822975,84.568123 
	C67.172035,84.729584 67.286987,84.921455 67.248428,85.026436 
z"/>
<path fill="#14100A" opacity="1.000000" stroke="none" 
	d="
M95.118469,107.029572 
	C95.471123,106.668655 95.823769,106.307732 96.392960,105.797119 
	C96.447899,107.182739 96.286308,108.718048 96.058243,110.944107 
	C94.602257,113.923241 92.885918,116.166473 94.799500,119.123627 
	C94.341057,119.525963 94.065948,119.741302 93.491135,119.930046 
	C92.791634,119.888382 92.391838,119.873322 91.992050,119.858261 
	C94.284943,116.423424 89.689583,117.240181 89.117920,115.183929 
	C90.513908,113.147408 92.076012,111.397835 93.775681,109.312134 
	C93.913239,108.976006 93.984222,108.958176 94.219894,108.774155 
	C94.676529,108.069939 94.897499,107.549759 95.118469,107.029572 
z"/>
<path fill="#1F180C" opacity="1.000000" stroke="none" 
	d="
M96.983711,128.990921 
	C95.006180,128.250824 93.028641,127.510727 91.024071,126.382294 
	C90.997032,125.993958 91.261436,125.802582 91.833130,125.864098 
	C94.272636,124.970734 96.140457,124.015846 98.051743,122.858444 
	C98.095215,122.655937 98.151459,122.245522 98.363083,122.200409 
	C98.574715,122.155289 98.982727,122.007835 99.042969,122.280869 
	C102.499062,123.057091 105.835754,123.376526 108.034073,119.490166 
	C108.696289,119.124580 109.217957,118.992546 110.044998,118.999130 
	C111.916725,119.456726 113.483078,119.775711 115.049438,120.094696 
	C114.226082,120.707008 113.402725,121.319328 112.074081,121.992477 
	C111.568802,122.053299 111.146111,122.051537 110.923965,122.143921 
	C110.413841,122.395172 110.184151,122.614952 109.821022,122.977997 
	C109.629288,123.060341 109.214905,123.109932 109.214905,123.109932 
	C106.676392,124.388893 104.137871,125.667854 101.320618,126.973114 
	C100.727531,127.121887 100.464706,127.314606 100.132683,127.792259 
	C99.571083,128.005417 99.130211,128.003906 98.143631,128.120010 
	C97.329865,128.437103 97.125122,128.688202 96.983711,128.990921 
z"/>
<path fill="#D0BD86" opacity="1.000000" stroke="none" 
	d="
M165.071014,124.104126 
	C164.617737,122.546913 163.816879,121.049263 163.976456,119.662094 
	C164.289764,116.938683 165.137512,114.276756 165.917511,111.234772 
	C166.722427,112.024002 167.373962,113.167847 168.088409,114.667107 
	C168.061417,116.024132 167.971497,117.025749 167.601562,118.537651 
	C166.947372,119.707924 166.573212,120.367897 166.199051,121.027878 
	C166.132889,121.181107 166.066727,121.334343 165.692108,121.888580 
	C165.395264,122.897781 165.406860,123.505981 165.418457,124.114189 
	C165.418457,124.114189 165.157578,124.213631 165.071014,124.104126 
z"/>
<path fill="#E5D9A4" opacity="1.000000" stroke="none" 
	d="
M161.004715,127.994888 
	C161.901382,127.146194 162.798050,126.297501 163.937225,125.631310 
	C164.184052,126.541237 164.188370,127.268661 164.192688,127.996094 
	C163.280579,129.190323 162.368469,130.384567 161.186066,131.753632 
	C160.915771,131.928452 160.945953,131.938126 160.962158,131.538971 
	C160.983948,130.094360 160.989563,129.048920 160.997467,128.001724 
	C160.999771,127.999962 161.004715,127.994888 161.004715,127.994888 
z"/>
<path fill="#2C2316" opacity="1.000000" stroke="none" 
	d="
M165.672165,124.037674 
	C165.406860,123.505981 165.395264,122.897781 165.665131,122.137482 
	C165.939682,122.643982 165.932785,123.302567 165.672165,124.037674 
z"/>
<path fill="#2C2316" opacity="1.000000" stroke="none" 
	d="
M166.512589,120.950630 
	C166.573212,120.367897 166.947372,119.707924 167.607605,118.915176 
	C167.537827,119.479393 167.181976,120.176392 166.512589,120.950630 
z"/>
<path fill="#2C2316" opacity="1.000000" stroke="none" 
	d="
M164.414429,127.808289 
	C164.188370,127.268661 164.184052,126.541237 164.210266,125.451248 
	C164.240799,125.088676 164.705063,125.153412 164.911041,125.265251 
	C164.956741,126.124893 164.796448,126.872688 164.414429,127.808289 
z"/>
<path fill="#1F1208" opacity="1.000000" stroke="none" 
	d="
M98.008278,123.060959 
	C96.140457,124.015846 94.272636,124.970734 91.993156,125.896080 
	C91.667320,125.160736 91.753143,124.454933 92.357246,123.394173 
	C94.586441,123.046471 96.297363,123.053719 98.008278,123.060959 
z"/>
<path fill="#EDBA71" opacity="1.000000" stroke="none" 
	d="
M98.051743,122.858444 
	C96.297363,123.053719 94.586441,123.046471 92.445595,123.049011 
	C92.009850,122.615974 92.004044,122.173134 92.347855,121.348175 
	C93.512466,120.651711 94.327454,120.337372 95.492935,120.039925 
	C96.612770,120.786385 97.382118,121.515953 98.151459,122.245514 
	C98.151459,122.245522 98.095215,122.655937 98.051743,122.858444 
z"/>
<path fill="#B29F6A" opacity="1.000000" stroke="none" 
	d="
M95.142441,120.023026 
	C94.327454,120.337372 93.512466,120.651711 92.368744,121.016602 
	C91.853668,121.049103 91.667328,121.031067 91.201706,120.984795 
	C90.922409,120.956566 91.119980,120.536331 91.176086,120.310898 
	C91.232193,120.085457 91.636177,120.051300 91.814117,119.954781 
	C92.391838,119.873322 92.791634,119.888382 93.830322,119.920593 
	C94.693619,119.966171 94.918030,119.994598 95.142441,120.023026 
z"/>
<path fill="#1F180C" opacity="1.000000" stroke="none" 
	d="
M124.200989,118.031952 
	C124.024696,117.400871 123.848412,116.769783 123.331955,115.799034 
	C122.979057,115.273087 122.966347,115.086815 122.953644,114.900558 
	C123.773933,113.858025 124.594223,112.815491 126.029671,111.463585 
	C129.439941,110.288292 132.235062,109.422363 135.030182,108.556442 
	C136.057373,110.048203 132.944656,112.873695 136.476562,113.821503 
	C135.883423,115.762314 135.439880,117.391960 134.996338,119.021606 
	C133.797714,119.483673 132.599075,119.945732 131.198395,119.795486 
	C130.996338,117.441185 130.996338,115.699188 130.996338,113.957191 
	C130.532806,113.937630 130.069275,113.918068 129.605743,113.898506 
	C128.734650,115.931358 127.863548,117.964211 126.992455,119.997070 
	C126.992455,119.997070 126.506660,120.003403 126.138527,119.759621 
	C125.247261,119.021210 124.724129,118.526581 124.200989,118.031952 
z"/>
<path fill="#221F20" opacity="1.000000" stroke="none" 
	d="
M153.795319,112.798355 
	C153.809311,113.831757 153.536606,114.644852 153.130768,115.755569 
	C153.001343,117.412285 153.005035,118.771385 153.009552,120.537155 
	C150.555756,119.778984 146.639496,120.131279 147.277115,115.705498 
	C147.490829,114.222015 147.897690,111.831673 148.730972,111.583405 
	C150.102951,111.174644 151.894150,112.172920 153.795319,112.798355 
z"/>
<path fill="#1F1208" opacity="1.000000" stroke="none" 
	d="
M124.035004,118.391083 
	C124.724129,118.526581 125.247261,119.021210 125.895607,119.759323 
	C122.611542,125.522896 123.444099,133.358139 127.933044,137.531723 
	C123.666718,137.664658 121.666931,135.210205 122.047646,131.069092 
	C122.427086,126.941879 123.243950,122.854866 124.035004,118.391083 
z"/>
<path fill="#2C2316" opacity="1.000000" stroke="none" 
	d="
M135.335327,118.952698 
	C135.439880,117.391960 135.883423,115.762314 136.690796,114.017761 
	C137.054626,113.902847 137.501266,113.883980 137.717133,113.825455 
	C139.335098,113.766922 140.737198,113.766922 142.139313,113.766922 
	C142.303024,114.022209 142.466736,114.277496 142.630447,114.532784 
	C140.311737,115.983109 137.993027,117.433441 135.335327,118.952698 
z"/>
<path fill="#1F1208" opacity="1.000000" stroke="none" 
	d="
M127.393021,119.997864 
	C127.863548,117.964211 128.734650,115.931358 129.605743,113.898506 
	C130.069275,113.918068 130.532806,113.937630 130.996338,113.957191 
	C130.996338,115.699188 130.996338,117.441185 130.996155,119.587013 
	C129.928497,119.993454 128.861053,119.996056 127.393021,119.997864 
z"/>
<path fill="#2C2316" opacity="1.000000" stroke="none" 
	d="
M153.004807,129.353607 
	C152.796021,129.927902 152.247314,130.469727 151.382050,131.069275 
	C151.598618,130.525055 152.131760,129.923096 153.004807,129.353607 
z"/>
<path fill="#E1BA7B" opacity="1.000000" stroke="none" 
	d="
M109.739616,118.860512 
	C109.217957,118.992546 108.696289,119.124580 107.655724,119.570023 
	C106.109505,119.954056 105.082184,120.024681 103.843201,119.848167 
	C102.805824,119.382492 101.980133,119.163956 101.062912,118.983284 
	C100.971390,119.021149 100.774094,119.038902 100.774094,119.038902 
	C100.771332,116.317764 102.153854,115.264755 104.838318,114.933769 
	C106.668327,114.708153 108.379311,113.517113 110.508469,112.628494 
	C110.318306,115.664207 111.802116,115.789024 114.228134,114.872055 
	C115.357948,114.445023 116.633041,114.402374 117.616188,114.656235 
	C114.839928,116.371498 112.289772,117.616005 109.739616,118.860512 
z"/>
<path fill="#EEBB5C" opacity="1.000000" stroke="none" 
	d="
M112.391861,103.059227 
	C112.030212,102.552711 112.029526,102.112061 112.328598,101.270889 
	C113.075356,100.263824 113.522354,99.657295 113.969353,99.050766 
	C118.670876,96.059441 113.950928,94.078575 113.116547,91.331314 
	C114.969398,91.522575 118.427650,91.855431 118.528275,92.626472 
	C118.939835,95.780014 118.624634,99.141273 117.854698,102.246971 
	C117.687866,102.919914 114.531967,102.851852 112.391861,103.059227 
z"/>
<path fill="#E2D091" opacity="1.000000" stroke="none" 
	d="
M135.214722,108.225464 
	C132.235062,109.422363 129.439941,110.288292 126.250694,111.244537 
	C126.017769,109.826324 126.178986,108.317787 126.533890,106.410736 
	C129.483231,105.330002 132.238892,104.647774 134.994537,103.965546 
	C135.129440,105.275192 135.264343,106.584839 135.214722,108.225464 
z"/>
<path fill="#2C2316" opacity="1.000000" stroke="none" 
	d="
M110.044998,118.999130 
	C112.289772,117.616005 114.839928,116.371498 117.700073,114.938179 
	C119.437515,114.813538 120.864983,114.877708 122.623039,114.921219 
	C122.966347,115.086815 122.979057,115.273087 123.002708,115.739136 
	C120.599899,117.337311 118.186165,118.655731 115.410934,120.034424 
	C113.483078,119.775711 111.916725,119.456726 110.044998,118.999130 
z"/>
<path fill="#1F1208" opacity="1.000000" stroke="none" 
	d="
M134.812805,103.738853 
	C132.238892,104.647774 129.483231,105.330002 126.374268,106.127747 
	C124.838188,106.516769 123.655403,106.790268 122.197685,107.127335 
	C122.086037,105.874916 121.993225,104.833870 121.978073,103.400284 
	C124.252068,102.879036 126.448402,102.750328 129.162140,102.318863 
	C130.120575,102.017387 130.561584,102.018677 131.192673,102.237030 
	C131.921066,102.633209 132.459396,102.812332 132.997711,102.991455 
	C133.542160,103.165024 134.086609,103.338593 134.812805,103.738853 
z"/>
<path fill="#E5D9A4" opacity="1.000000" stroke="none" 
	d="
M159.588409,118.097488 
	C160.267731,121.092781 160.587097,124.209404 160.955597,127.660461 
	C161.004715,127.994888 160.999771,127.999962 160.737244,127.878357 
	C159.954330,127.506310 159.433945,127.255867 158.913559,127.005432 
	C159.018509,124.076561 159.123474,121.147682 159.588409,118.097488 
z"/>
<path fill="#E2D091" opacity="1.000000" stroke="none" 
	d="
M158.895691,127.294006 
	C159.433945,127.255867 159.954330,127.506310 160.734940,127.880112 
	C160.989563,129.048920 160.983948,130.094360 160.951355,131.530029 
	C159.956741,131.185364 158.989136,130.450455 158.001343,129.357025 
	C158.280029,128.526535 158.578934,128.054550 158.895691,127.294006 
z"/>
<path fill="#171214" opacity="1.000000" stroke="none" 
	d="
M131.002594,102.019974 
	C130.561584,102.018677 130.120575,102.017387 129.349213,102.020645 
	C130.021881,96.142311 134.841309,100.467880 136.956039,99.015953 
	C137.161392,97.674599 137.108032,95.700050 137.539078,95.587944 
	C140.166733,94.904518 143.117996,93.774117 144.936478,97.627808 
	C141.274277,99.326538 137.542496,100.651253 133.074463,101.993637 
	C131.893005,102.014198 131.447800,102.017090 131.002594,102.019974 
z"/>
<path fill="#171214" opacity="1.000000" stroke="none" 
	d="
M124.393311,94.948547 
	C122.979523,91.871407 123.816795,89.804535 127.415344,90.065872 
	C130.443878,90.285812 133.436905,90.994652 136.731323,91.741508 
	C132.940689,92.957779 128.864380,93.919609 124.393311,94.948547 
z"/>
<path fill="#1F1208" opacity="1.000000" stroke="none" 
	d="
M149.093475,95.992172 
	C149.408356,95.919724 149.672302,96.179649 149.882019,96.722168 
	C149.827789,97.004768 149.416000,96.999657 149.210266,96.997818 
	C149.017212,96.772163 149.029877,96.548347 149.093475,95.992172 
z"/>
<path fill="#14100A" opacity="1.000000" stroke="none" 
	d="
M131.192673,102.237030 
	C131.447800,102.017090 131.893005,102.014198 132.672318,102.014420 
	C133.006424,102.017525 133.001709,102.504593 132.999710,102.748024 
	C132.459396,102.812332 131.921066,102.633209 131.192673,102.237030 
z"/>
<path fill="#EEBB5C" opacity="1.000000" stroke="none" 
	d="
M113.074974,123.889122 
	C114.895218,122.890457 116.715454,121.891785 118.806061,120.744781 
	C121.524612,127.201241 116.996117,135.700027 126.397171,139.906540 
	C124.562202,140.444946 123.641472,140.715118 122.096939,140.742493 
	C114.331429,138.938309 111.794159,132.019211 115.974358,125.518250 
	C115.005760,124.978477 114.040367,124.433800 113.074974,123.889122 
z"/>
<path fill="#EDBA71" opacity="1.000000" stroke="none" 
	d="
M112.952515,123.665756 
	C114.040367,124.433800 115.005760,124.978477 115.974358,125.518250 
	C111.794159,132.019211 114.331429,138.938309 121.745102,140.742737 
	C118.488647,140.724060 114.960236,140.462372 111.029633,140.030212 
	C111.077415,136.997330 111.828606,134.136688 111.845528,131.271698 
	C111.853546,129.914658 110.338684,128.599411 109.738274,127.170868 
	C109.308807,126.149071 109.252686,124.970360 109.122444,123.485794 
	C109.214905,123.109932 109.629288,123.060341 110.090912,122.998016 
	C110.750397,122.640976 110.948257,122.346260 111.146118,122.051544 
	C111.146111,122.051537 111.568802,122.053299 111.771782,122.111145 
	C112.259857,122.593445 112.544952,123.017914 112.952515,123.665756 
z"/>
<path fill="#140A06" opacity="1.000000" stroke="none" 
	d="
M97.026764,129.222809 
	C97.125122,128.688202 97.329865,128.437103 97.813103,128.119568 
	C97.708794,128.485916 97.389313,128.970306 97.026764,129.222809 
z"/>
<path fill="#221F20" opacity="1.000000" stroke="none" 
	d="
M94.982819,118.936623 
	C92.885918,116.166473 94.602257,113.923241 96.004669,111.329277 
	C102.854668,110.222893 99.606613,115.256004 100.107132,118.540466 
	C100.095284,118.967094 99.983231,118.992752 99.657455,118.953896 
	C97.882057,118.922234 96.432434,118.929428 94.982819,118.936623 
z"/>
<path fill="#1F180C" opacity="1.000000" stroke="none" 
	d="
M100.142319,118.934052 
	C100.189354,118.901016 100.479370,118.980125 100.626732,119.009514 
	C100.774094,119.038902 100.971390,119.021149 100.980690,119.370209 
	C100.637260,119.920464 100.284523,120.121666 99.983444,119.991837 
	C100.017815,119.438118 100.000526,119.215431 99.983231,118.992752 
	C99.983231,118.992752 100.095284,118.967094 100.142319,118.934052 
z"/>
<path fill="#EBE0B4" opacity="1.000000" stroke="none" 
	d="
M94.920654,107.223358 
	C94.897499,107.549759 94.676529,108.069939 94.208656,108.739326 
	C94.215446,108.398064 94.469147,107.907600 94.920654,107.223358 
z"/>
<path fill="#D9B069" opacity="1.000000" stroke="none" 
	d="
M113.665916,99.102234 
	C113.522354,99.657295 113.075356,100.263824 112.332565,100.940392 
	C112.478683,100.391518 112.920578,99.772614 113.665916,99.102234 
z"/>
<path fill="#E1BA7B" opacity="1.000000" stroke="none" 
	d="
M99.657455,118.953896 
	C100.000526,119.215431 100.017815,119.438118 99.998306,119.987206 
	C99.961502,120.313606 99.950859,120.301750 99.802078,120.600800 
	C99.429771,121.269180 99.206245,121.638504 98.982727,122.007835 
	C98.982727,122.007835 98.574715,122.155289 98.363091,122.200401 
	C97.382118,121.515953 96.612770,120.786385 95.492935,120.039917 
	C94.918030,119.994598 94.693619,119.966171 94.130028,119.947189 
	C94.065948,119.741302 94.341057,119.525963 94.799500,119.123627 
	C96.432434,118.929428 97.882057,118.922234 99.657455,118.953896 
z"/>
<path fill="#1F1208" opacity="1.000000" stroke="none" 
	d="
M99.042969,122.280869 
	C99.206245,121.638504 99.429771,121.269180 100.126892,120.301773 
	C101.751961,119.834236 102.903412,119.964775 104.054871,120.095306 
	C105.082184,120.024681 106.109505,119.954056 107.515167,119.803574 
	C105.835754,123.376526 102.499062,123.057091 99.042969,122.280869 
z"/>
<path fill="#1F1208" opacity="1.000000" stroke="none" 
	d="
M110.923965,122.143929 
	C110.948257,122.346260 110.750397,122.640976 110.282646,122.915680 
	C110.184151,122.614952 110.413841,122.395172 110.923965,122.143929 
z"/>
<path fill="#EDBA71" opacity="1.000000" stroke="none" 
	d="
M103.843201,119.848175 
	C102.903412,119.964775 101.751961,119.834236 100.275681,120.002724 
	C99.950859,120.301750 99.961502,120.313606 99.946640,120.318237 
	C100.284523,120.121666 100.637260,119.920464 101.072212,119.332336 
	C101.980133,119.163956 102.805824,119.382492 103.843201,119.848175 
z"/>
</svg>